<svg width="18" height="11" viewBox="0 0 18 11" fill="none" xmlns="http://www.w3.org/2000/svg">
<path d="M16.776 2.24C16.952 2.032 17.024 1.792 16.992 1.52C16.976 1.232 16.864 1.008 16.656 0.847999C16.448 0.671999 16.2 0.592 15.912 0.607999C15.64 0.623999 15.416 0.735999 15.24 0.943999L9 8.312L2.76 0.943999C2.584 0.735999 2.352 0.623999 2.064 0.607999C1.792 0.592 1.552 0.671999 1.344 0.847999C1.136 1.024 1.024 1.248 1.008 1.52C0.992 1.792 1.072 2.032 1.248 2.24L8.232 10.496C8.328 10.608 8.448 10.696 8.592 10.76C8.736 10.824 8.88 10.848 9.024 10.832C9.328 10.832 9.576 10.72 9.768 10.496L16.776 2.24Z" fill="#212121"/>
</svg>
