<svg width="24" height="24" viewBox="0 0 24 24" fill="none" xmlns="http://www.w3.org/2000/svg">
<rect width="24" height="24" rx="12" fill="#383838"/>
<path d="M19.072 17.216C19.2213 17.216 19.344 17.264 19.44 17.36C19.536 17.456 19.584 17.5787 19.584 17.728C19.584 17.8667 19.5307 17.984 19.424 18.08C19.328 18.176 19.2107 18.224 19.072 18.224H5.392C5.25333 18.224 5.136 18.176 5.04 18.08C4.944 17.984 4.896 17.8667 4.896 17.728C4.896 17.5893 4.944 17.472 5.04 17.376C5.136 17.2693 5.25333 17.216 5.392 17.216H6.272V7.84C6.272 7.52 6.384 7.248 6.608 7.024C6.84267 6.78933 7.12 6.672 7.44 6.672H12.368C12.688 6.672 12.96 6.78933 13.184 7.024C13.4187 7.248 13.536 7.52 13.536 7.84V10.352H16.912C17.232 10.352 17.504 10.4693 17.728 10.704C17.9627 10.928 18.08 11.2 18.08 11.52V17.216H19.072ZM13.568 11.36V17.216H17.072V11.52C17.072 11.4773 17.056 11.44 17.024 11.408C16.992 11.376 16.9547 11.36 16.912 11.36H13.568ZM7.28 7.84V17.216H12.528V7.84C12.528 7.78667 12.512 7.744 12.48 7.712C12.448 7.68 12.4107 7.664 12.368 7.664H7.44C7.39733 7.664 7.36 7.68 7.328 7.712C7.296 7.744 7.28 7.78667 7.28 7.84ZM8.4 10C8.26133 10 8.144 9.952 8.048 9.856C7.952 9.76 7.904 9.64267 7.904 9.504C7.904 9.36533 7.952 9.248 8.048 9.152C8.144 9.04533 8.26133 8.992 8.4 8.992H10.416C10.5547 8.992 10.672 9.04533 10.768 9.152C10.864 9.248 10.912 9.36533 10.912 9.504C10.912 9.64267 10.864 9.76 10.768 9.856C10.672 9.952 10.5547 10 10.416 10H8.4ZM11.232 12.704C11.3707 12.704 11.488 12.752 11.584 12.848C11.68 12.944 11.728 13.0613 11.728 13.2C11.728 13.3387 11.68 13.456 11.584 13.552C11.488 13.648 11.3707 13.696 11.232 13.696H9.424C9.28533 13.696 9.16267 13.648 9.056 13.552C8.96 13.456 8.912 13.3387 8.912 13.2C8.912 13.0613 8.96 12.944 9.056 12.848C9.16267 12.752 9.28533 12.704 9.424 12.704H11.232ZM15.856 12.656C15.9947 12.656 16.112 12.704 16.208 12.8C16.3147 12.896 16.368 13.0133 16.368 13.152C16.368 13.2907 16.3147 13.408 16.208 13.504C16.112 13.6 15.9947 13.648 15.856 13.648H14.864C14.7253 13.648 14.608 13.6 14.512 13.504C14.416 13.408 14.368 13.2907 14.368 13.152C14.368 13.0133 14.416 12.896 14.512 12.8C14.608 12.704 14.7253 12.656 14.864 12.656H15.856ZM10.368 14.944C10.5067 14.944 10.624 14.992 10.72 15.088C10.816 15.184 10.864 15.3013 10.864 15.44C10.864 15.5787 10.816 15.696 10.72 15.792C10.624 15.888 10.5067 15.936 10.368 15.936H8.544C8.40533 15.936 8.288 15.888 8.192 15.792C8.096 15.696 8.048 15.5787 8.048 15.44C8.048 15.3013 8.096 15.184 8.192 15.088C8.288 14.992 8.40533 14.944 8.544 14.944H10.368ZM15.856 14.944C15.9947 14.944 16.112 14.992 16.208 15.088C16.3147 15.184 16.368 15.3013 16.368 15.44C16.368 15.5787 16.3147 15.696 16.208 15.792C16.112 15.888 15.9947 15.936 15.856 15.936H14.864C14.7253 15.936 14.608 15.888 14.512 15.792C14.416 15.696 14.368 15.5787 14.368 15.44C14.368 15.3013 14.416 15.184 14.512 15.088C14.608 14.992 14.7253 14.944 14.864 14.944H15.856Z" fill="#C6C6C6"/>
</svg>
