<svg width="24" height="24" viewBox="0 0 24 24" fill="none" xmlns="http://www.w3.org/2000/svg">
<rect width="24" height="24" rx="12" fill="#444347"/>
<path d="M16.896 8.208L12.704 12.4L16.896 16.592C16.992 16.688 17.04 16.8053 17.04 16.944C17.04 17.0827 16.992 17.2 16.896 17.296C16.8 17.392 16.6827 17.44 16.544 17.44C16.4053 17.44 16.288 17.392 16.192 17.296L12 13.104L7.808 17.296C7.712 17.392 7.59467 17.44 7.456 17.44C7.31733 17.44 7.2 17.392 7.104 17.296C7.008 17.2 6.96 17.0827 6.96 16.944C6.96 16.8053 7.008 16.688 7.104 16.592L11.296 12.4L7.104 8.208C7.008 8.112 6.96 7.99467 6.96 7.856C6.96 7.71733 7.008 7.6 7.104 7.504C7.2 7.408 7.31733 7.36 7.456 7.36C7.59467 7.36 7.712 7.408 7.808 7.504L12 11.696L16.192 7.504C16.288 7.408 16.4053 7.36 16.544 7.36C16.6827 7.36 16.8 7.408 16.896 7.504C16.992 7.6 17.04 7.71733 17.04 7.856C17.04 7.99467 16.992 8.112 16.896 8.208Z" fill="#C8C5CA"/>
</svg>
