<svg width="32" height="32" viewBox="0 0 32 32" fill="none" xmlns="http://www.w3.org/2000/svg">
<rect width="32" height="32" rx="4" fill="#2A2A2A" fill-opacity="0.24"/>
<rect x="0.5" y="0.5" width="31" height="31" rx="3.5" stroke="#929094" stroke-opacity="0.4"/>
<path d="M9.2 11.872C9.06133 11.872 8.93867 11.824 8.832 11.728C8.72533 11.632 8.672 11.52 8.672 11.392C8.672 11.264 8.72533 11.1467 8.832 11.04C8.93867 10.9227 9.06133 10.864 9.2 10.864H10.736C10.8 10.5547 10.9387 10.2613 11.152 9.984C11.3653 9.70667 11.6213 9.488 11.92 9.328C12.2293 9.15733 12.544 9.072 12.864 9.072C13.376 9.072 13.8347 9.23733 14.24 9.568C14.6453 9.888 14.9013 10.2987 15.008 10.8H22.8C22.96 10.8 23.088 10.8533 23.184 10.96C23.28 11.0667 23.328 11.1893 23.328 11.328C23.328 11.488 23.2747 11.6213 23.168 11.728C23.0613 11.824 22.9387 11.872 22.8 11.872H15.008C14.9013 12.3733 14.6507 12.7893 14.256 13.12C13.8613 13.44 13.3973 13.6 12.864 13.6C12.3413 13.6 11.8773 13.44 11.472 13.12C11.0773 12.7893 10.832 12.3733 10.736 11.872H9.2ZM12.864 10.192C12.5333 10.192 12.2507 10.3093 12.016 10.544C11.7813 10.7787 11.664 11.0613 11.664 11.392C11.664 11.7227 11.7813 12.0053 12.016 12.24C12.2507 12.4747 12.5333 12.592 12.864 12.592C13.2053 12.592 13.488 12.4747 13.712 12.24C13.9467 12.0053 14.064 11.7227 14.064 11.392C14.064 11.0613 13.9467 10.7787 13.712 10.544C13.4773 10.3093 13.1947 10.192 12.864 10.192ZM22.864 21.136C23.0027 21.136 23.1147 21.184 23.2 21.28C23.2853 21.376 23.328 21.504 23.328 21.664C23.328 21.824 23.2747 21.952 23.168 22.048C23.0613 22.1547 22.9387 22.208 22.8 22.208H17.136C17.0293 22.6987 16.7733 23.1093 16.368 23.44C15.9627 23.7707 15.5093 23.936 15.008 23.936C14.5067 23.936 14.048 23.7707 13.632 23.44C13.2267 23.1093 12.9707 22.6987 12.864 22.208H9.2C9.04 22.208 8.912 22.1547 8.816 22.048C8.72 21.9413 8.672 21.8133 8.672 21.664C8.672 21.504 8.72533 21.376 8.832 21.28C8.93867 21.184 9.06133 21.136 9.2 21.136H12.928C13.0347 20.624 13.2853 20.208 13.68 19.888C14.0747 19.5573 14.5387 19.392 15.072 19.392C15.5733 19.392 16.0267 19.5573 16.432 19.888C16.848 20.2187 17.104 20.6347 17.2 21.136H22.864ZM15.008 22.864C15.3387 22.864 15.6213 22.7467 15.856 22.512C16.0907 22.2773 16.208 21.9947 16.208 21.664C16.208 21.3333 16.0907 21.0507 15.856 20.816C15.6213 20.5813 15.3387 20.464 15.008 20.464C14.6773 20.464 14.3947 20.5813 14.16 20.816C13.9253 21.04 13.808 21.3227 13.808 21.664C13.808 21.9947 13.9253 22.2773 14.16 22.512C14.3947 22.7467 14.6773 22.864 15.008 22.864ZM9.2 16.992C9.06133 16.992 8.93867 16.9493 8.832 16.864C8.72533 16.768 8.672 16.656 8.672 16.528C8.672 16.4 8.72533 16.2773 8.832 16.16C8.93867 16.0427 9.06133 15.968 9.2 15.936H17.136C17.232 15.4347 17.4773 15.0187 17.872 14.688C18.2773 14.3573 18.736 14.192 19.248 14.192C19.7707 14.192 20.2347 14.3573 20.64 14.688C21.0453 15.0187 21.3013 15.4347 21.408 15.936H22.8C22.9707 15.936 23.0987 15.984 23.184 16.08C23.28 16.1653 23.328 16.2933 23.328 16.464C23.328 16.624 23.2747 16.752 23.168 16.848C23.0613 16.944 22.9387 16.992 22.8 16.992H21.408C21.3013 17.504 21.0507 17.9253 20.656 18.256C20.2613 18.576 19.7973 18.736 19.264 18.736C18.7627 18.736 18.304 18.5707 17.888 18.24C17.4827 17.9093 17.232 17.4933 17.136 16.992H9.2ZM19.264 15.328C18.9333 15.328 18.6507 15.4453 18.416 15.68C18.1813 15.9147 18.064 16.1973 18.064 16.528C18.064 16.8587 18.1813 17.1413 18.416 17.376C18.6507 17.6107 18.9333 17.728 19.264 17.728C19.6053 17.728 19.888 17.6107 20.112 17.376C20.3467 17.1413 20.464 16.8587 20.464 16.528C20.464 16.1973 20.3467 15.9147 20.112 15.68C19.8773 15.4453 19.5947 15.328 19.264 15.328Z" fill="#ABABAB"/>
</svg>
