<svg width="24" height="24" viewBox="0 0 24 24" fill="none" xmlns="http://www.w3.org/2000/svg">
<rect width="24" height="24" rx="12" fill="#383838"/>
<path d="M6.688 18.448C6.37867 18.1707 6.16 17.84 6.032 17.456C5.904 17.072 5.87733 16.6827 5.952 16.288C6.02667 15.8827 6.20267 15.52 6.48 15.2L8.752 12.624C9.02933 12.304 9.36 12.08 9.744 11.952C10.128 11.824 10.5227 11.8027 10.928 11.888C11.3333 11.9627 11.6907 12.1387 12 12.416C12.3093 12.6933 12.528 13.024 12.656 13.408C12.784 13.792 12.8107 14.1867 12.736 14.592C12.6613 14.9973 12.4853 15.3547 12.208 15.664L9.936 18.24C9.65867 18.56 9.328 18.784 8.944 18.912C8.56 19.04 8.16533 19.0613 7.76 18.976C7.35467 18.9013 6.99733 18.7253 6.688 18.448ZM11.44 13.04C11.1307 12.7733 10.7733 12.656 10.368 12.688C9.97333 12.72 9.64267 12.8853 9.376 13.184L7.12 15.76C6.85333 16.0587 6.73067 16.4107 6.752 16.816C6.77333 17.2107 6.93333 17.5413 7.232 17.808C7.54133 18.0747 7.89333 18.1973 8.288 18.176C8.69333 18.1547 9.03467 17.9893 9.312 17.68L11.568 15.104C11.8347 14.7947 11.952 14.4427 11.92 14.048C11.8987 13.6427 11.7387 13.3067 11.44 13.04ZM13.904 7.792C13.904 7.71733 13.92 7.648 13.952 7.584C13.9947 7.52 14.048 7.46667 14.112 7.424L16.384 5.968C16.4693 5.91467 16.56 5.89333 16.656 5.904C16.7627 5.904 16.8533 5.94133 16.928 6.016L17.792 6.768C17.8667 6.832 17.9147 6.91733 17.936 7.024C17.9573 7.12 17.9467 7.21067 17.904 7.296L16.752 9.744C16.688 9.88267 16.576 9.968 16.416 10L15.536 10.144L12.656 13.568C12.5707 13.664 12.464 13.7173 12.336 13.728C12.2187 13.7387 12.112 13.7067 12.016 13.632C11.92 13.5573 11.8667 13.456 11.856 13.328C11.8453 13.2 11.8827 13.088 11.968 12.992L14.96 9.44C15.0347 9.344 15.1253 9.29067 15.232 9.28L16.032 9.136L16.928 7.216L16.576 6.912L14.8 8.064L14.768 8.88C14.768 8.96533 14.7307 9.056 14.656 9.152L11.664 12.704C11.5787 12.8 11.472 12.8533 11.344 12.864C11.2267 12.8747 11.12 12.8427 11.024 12.768C10.928 12.6827 10.8747 12.576 10.864 12.448C10.8533 12.32 10.8907 12.208 10.976 12.112L13.856 8.688L13.904 7.792Z" fill="#F7B401"/>
</svg>
