<svg width="12" height="12" viewBox="0 0 12 12" fill="none" xmlns="http://www.w3.org/2000/svg">
<path d="M11.412 4.456V4.444C11.58 4.932 11.448 5.38 11.016 5.788L10.632 6.172C10.248 6.556 9.896 6.892 9.576 7.18C9.512 7.244 9.472 7.3 9.456 7.348C9.44 7.396 9.44 7.468 9.456 7.564C9.512 7.844 9.588 8.26 9.684 8.812L9.828 9.64V9.7C9.836 9.956 9.788 10.188 9.684 10.396C9.588 10.604 9.448 10.764 9.264 10.876C9.088 10.996 8.896 11.056 8.688 11.056C8.48 11.064 8.276 11.016 8.076 10.912C7.916 10.832 7.68 10.712 7.368 10.552L6.924 10.324C6.572 10.132 6.304 9.996 6.12 9.916C6.096 9.9 6.056 9.892 6 9.892C5.952 9.892 5.912 9.9 5.88 9.916C5.544 10.068 5.056 10.32 4.416 10.672L4.02 10.876C3.788 11.004 3.556 11.068 3.324 11.068C3.1 11.068 2.88 10.996 2.664 10.852C2.256 10.548 2.096 10.124 2.184 9.58L2.22 9.376C2.324 8.736 2.432 8.132 2.544 7.564C2.56 7.476 2.56 7.404 2.544 7.348C2.528 7.292 2.488 7.236 2.424 7.18C2.256 7.028 2.008 6.796 1.68 6.484L0.984 5.788C0.824 5.644 0.708 5.492 0.636 5.332C0.5 5.052 0.484 4.76 0.588 4.456C0.756 3.976 1.128 3.7 1.704 3.628L2.532 3.508C2.82 3.46 3.2 3.408 3.672 3.352C3.76 3.344 3.824 3.324 3.864 3.292C3.904 3.26 3.94 3.208 3.972 3.136C4.052 2.96 4.18 2.696 4.356 2.344L4.872 1.312C5.12 0.792 5.508 0.532 6.036 0.532C6.524 0.547999 6.888 0.807999 7.128 1.312C7.208 1.456 7.32 1.68 7.464 1.984C7.72 2.496 7.908 2.884 8.028 3.148C8.06 3.212 8.096 3.26 8.136 3.292C8.176 3.316 8.24 3.332 8.328 3.34L9.42 3.496C9.596 3.528 9.86 3.564 10.212 3.604L10.296 3.616C10.872 3.704 11.244 3.984 11.412 4.456Z" fill="#12DAA8"/>
</svg>
