<svg width="24" height="24" viewBox="0 0 24 24" fill="none" xmlns="http://www.w3.org/2000/svg">
<rect width="24" height="24" rx="12" fill="#383838"/>
<path d="M19.2 12.4C19.2747 12.4853 19.312 12.5973 19.312 12.736V15.76C19.312 15.8987 19.264 16.0213 19.168 16.128C19.072 16.224 18.9547 16.272 18.816 16.272H17.824C17.7067 16.6133 17.504 16.896 17.216 17.12C16.928 17.3333 16.5973 17.44 16.224 17.44C15.8613 17.44 15.536 17.3333 15.248 17.12C14.96 16.896 14.7573 16.6133 14.64 16.272H10.768C10.6613 16.6133 10.464 16.896 10.176 17.12C9.888 17.3333 9.55733 17.44 9.184 17.44C8.82133 17.44 8.49067 17.3333 8.192 17.12C7.904 16.896 7.70667 16.6133 7.6 16.272H6.688C6.54933 16.272 6.432 16.224 6.336 16.128C6.24 16.0213 6.192 15.8987 6.192 15.76V11.92H5.024C4.928 11.92 4.848 11.888 4.784 11.824C4.72 11.76 4.688 11.6853 4.688 11.6C4.688 11.504 4.72 11.424 4.784 11.36C4.848 11.296 4.928 11.264 5.024 11.264H6.192V10.08H5.648C5.552 10.08 5.472 10.048 5.408 9.984C5.344 9.92 5.312 9.84533 5.312 9.76C5.312 9.664 5.344 9.584 5.408 9.52C5.472 9.456 5.552 9.424 5.648 9.424H6.192V7.856C6.192 7.71733 6.24 7.6 6.336 7.504C6.432 7.408 6.54933 7.36 6.688 7.36H13.664C13.8027 7.36 13.92 7.408 14.016 7.504C14.112 7.6 14.16 7.71733 14.16 7.856V9.28H16.288C16.448 9.28 16.576 9.33867 16.672 9.456L19.2 12.4ZM16.064 10.272H14.16V12.384C14.224 12.352 14.288 12.336 14.352 12.336H17.824L16.064 10.272ZM7.184 11.92H7.2V15.264H7.6C7.71733 14.9227 7.92 14.6453 8.208 14.432C8.496 14.208 8.82133 14.096 9.184 14.096C9.55733 14.096 9.888 14.208 10.176 14.432C10.464 14.6453 10.6613 14.9227 10.768 15.264H13.168V8.368H7.184V9.424H9.888C9.984 9.424 10.064 9.456 10.128 9.52C10.192 9.584 10.224 9.664 10.224 9.76C10.224 9.84533 10.192 9.92 10.128 9.984C10.064 10.048 9.984 10.08 9.888 10.08H7.184V11.264H9.52C9.60533 11.264 9.68 11.296 9.744 11.36C9.81867 11.424 9.856 11.504 9.856 11.6C9.856 11.6853 9.81867 11.76 9.744 11.824C9.68 11.888 9.60533 11.92 9.52 11.92H7.184ZM9.184 16.432C9.36533 16.432 9.52 16.368 9.648 16.24C9.78667 16.1013 9.856 15.9413 9.856 15.76C9.856 15.5787 9.78667 15.424 9.648 15.296C9.52 15.1573 9.36533 15.088 9.184 15.088C9.00267 15.088 8.84267 15.1573 8.704 15.296C8.576 15.424 8.512 15.5787 8.512 15.76C8.512 15.9413 8.576 16.1013 8.704 16.24C8.84267 16.368 9.00267 16.432 9.184 16.432ZM16.224 16.432C16.416 16.432 16.576 16.368 16.704 16.24C16.832 16.1013 16.896 15.9413 16.896 15.76C16.896 15.5787 16.832 15.424 16.704 15.296C16.576 15.1573 16.416 15.088 16.224 15.088C16.0427 15.088 15.8827 15.1573 15.744 15.296C15.616 15.424 15.552 15.5787 15.552 15.76C15.552 15.9413 15.616 16.1013 15.744 16.24C15.8827 16.368 16.0427 16.432 16.224 16.432ZM17.824 15.264H18.32V13.344H14.352C14.288 13.344 14.224 13.328 14.16 13.296V15.264H14.64C14.7573 14.9227 14.96 14.6453 15.248 14.432C15.536 14.208 15.8613 14.096 16.224 14.096C16.5973 14.096 16.928 14.208 17.216 14.432C17.504 14.6453 17.7067 14.9227 17.824 15.264Z" fill="#C6C6C6"/>
</svg>
