<svg width="24" height="21" viewBox="0 0 24 21" fill="none" xmlns="http://www.w3.org/2000/svg">
<path d="M6 2.68C5.296 2.92 4.672 3.312 4.128 3.856C3.6 4.4 3.208 5.032 2.952 5.752V5.776C2.584 6.704 2.472 7.648 2.616 8.608C2.76 9.568 3.136 10.44 3.744 11.224C5.936 14.136 8.56 16.6 11.616 18.616C11.632 18.616 11.648 18.624 11.664 18.64C11.792 18.72 11.928 18.76 12.072 18.76C12.248 18.76 12.384 18.704 12.48 18.592C12.496 18.592 12.512 18.584 12.528 18.568C13.456 17.896 14.216 17.32 14.808 16.84H14.832C17.072 15.128 18.984 13.136 20.568 10.864C21.016 10.224 21.304 9.48 21.432 8.632C21.576 7.88 21.528 7.08 21.288 6.232L21.264 6.208C21.12 5.6 20.864 5.04 20.496 4.528C20.144 4.016 19.712 3.592 19.2 3.256C18.688 2.92 18.12 2.688 17.496 2.56C16.888 2.432 16.288 2.424 15.696 2.536C14.432 2.888 13.392 3.544 12.576 4.504C12.432 4.648 12.256 4.728 12.048 4.744C11.84 4.76 11.656 4.704 11.496 4.576L10.512 3.664C9.76 3.04 8.984 2.656 8.184 2.512C7.448 2.368 6.72 2.424 6 2.68ZM5.496 1.264C6.472 0.927999 7.464 0.847999 8.472 1.024C9.544 1.232 10.552 1.736 11.496 2.536V2.56L11.952 2.968C12.928 2.04 14.056 1.408 15.336 1.072H15.384C16.184 0.927999 16.984 0.935999 17.784 1.096C18.584 1.256 19.328 1.56 20.016 2.008C20.704 2.456 21.28 3.008 21.744 3.664C22.208 4.32 22.536 5.04 22.728 5.824C23.032 6.832 23.104 7.848 22.944 8.872C22.784 9.896 22.4 10.848 21.792 11.728C20.112 14.176 18.096 16.272 15.744 18.016C15.056 18.576 14.288 19.16 13.44 19.768C13.056 20.072 12.616 20.232 12.12 20.248C11.64 20.264 11.192 20.136 10.776 19.864C7.608 17.768 4.864 15.192 2.544 12.136C1.792 11.176 1.32 10.072 1.128 8.824C0.952 7.592 1.088 6.4 1.536 5.248C1.872 4.32 2.384 3.504 3.072 2.8C3.776 2.08 4.584 1.568 5.496 1.264Z" fill="#EFEFEF"/>
</svg>
