<svg width="16" height="14" viewBox="0 0 16 14" fill="none" xmlns="http://www.w3.org/2000/svg">
<path d="M8 13.848C7.69067 13.848 7.41333 13.752 7.168 13.56C5.056 12.1627 3.22133 10.4453 1.664 8.408C1.16267 7.75733 0.853333 7.02667 0.736 6.216C0.618667 5.36267 0.709333 4.568 1.008 3.832C1.232 3.18133 1.61067 2.60533 2.144 2.104C2.64533 1.63467 3.24267 1.29333 3.936 1.08C4.608 0.919999 5.26933 0.925333 5.92 1.096C6.57067 1.256 7.152 1.56533 7.664 2.024L8 2.312C8.65067 1.68267 9.40267 1.26133 10.256 1.048C10.7787 0.951999 11.3067 0.957333 11.84 1.064C12.3733 1.17067 12.864 1.37333 13.312 1.672C13.7707 1.96 14.1547 2.328 14.464 2.776C14.784 3.21333 15.0027 3.69333 15.12 4.216C15.3227 4.84533 15.3707 5.52267 15.264 6.248C15.1467 6.93067 14.9013 7.56 14.528 8.136C13.4293 9.72533 12.08 11.128 10.48 12.344C10.2027 12.5573 9.78667 12.872 9.232 13.288L8.928 13.528C8.65067 13.72 8.34133 13.8267 8 13.848Z" fill="#12DAA8"/>
</svg>
