<svg width="24" height="24" viewBox="0 0 24 24" fill="none" xmlns="http://www.w3.org/2000/svg">
<rect width="24" height="24" rx="12" fill="#444347"/>
<path d="M8 7.12C7.53067 7.28 7.11467 7.54133 6.752 7.904C6.4 8.26667 6.13867 8.688 5.968 9.168V9.184C5.72267 9.80267 5.648 10.432 5.744 11.072C5.84 11.712 6.09067 12.2933 6.496 12.816C7.95733 14.7573 9.70667 16.4 11.744 17.744C11.7547 17.744 11.7653 17.7493 11.776 17.76C11.8613 17.8133 11.952 17.84 12.048 17.84C12.1653 17.84 12.256 17.8027 12.32 17.728C12.3307 17.728 12.3413 17.7227 12.352 17.712C12.9707 17.264 13.4773 16.88 13.872 16.56H13.888C15.3813 15.4187 16.656 14.0907 17.712 12.576C18.0107 12.1493 18.2027 11.6533 18.288 11.088C18.384 10.5867 18.352 10.0533 18.192 9.488L18.176 9.472C18.08 9.06667 17.9093 8.69333 17.664 8.352C17.4293 8.01067 17.1413 7.728 16.8 7.504C16.4587 7.28 16.08 7.12533 15.664 7.04C15.2587 6.95467 14.8587 6.94933 14.464 7.024C13.6213 7.25867 12.928 7.696 12.384 8.336C12.288 8.432 12.1707 8.48533 12.032 8.496C11.8933 8.50667 11.7707 8.46933 11.664 8.384L11.008 7.776C10.5067 7.36 9.98933 7.104 9.456 7.008C8.96533 6.912 8.48 6.94933 8 7.12ZM7.664 6.176C8.31467 5.952 8.976 5.89867 9.648 6.016C10.3627 6.15467 11.0347 6.49067 11.664 7.024V7.04L11.968 7.312C12.6187 6.69333 13.3707 6.272 14.224 6.048H14.256C14.7893 5.952 15.3227 5.95733 15.856 6.064C16.3893 6.17067 16.8853 6.37333 17.344 6.672C17.8027 6.97067 18.1867 7.33867 18.496 7.776C18.8053 8.21333 19.024 8.69333 19.152 9.216C19.3547 9.888 19.4027 10.5653 19.296 11.248C19.1893 11.9307 18.9333 12.5653 18.528 13.152C17.408 14.784 16.064 16.1813 14.496 17.344C14.0373 17.7173 13.5253 18.1067 12.96 18.512C12.704 18.7147 12.4107 18.8213 12.08 18.832C11.76 18.8427 11.4613 18.7573 11.184 18.576C9.072 17.1787 7.24267 15.4613 5.696 13.424C5.19467 12.784 4.88 12.048 4.752 11.216C4.63467 10.3947 4.72533 9.6 5.024 8.832C5.248 8.21333 5.58933 7.66933 6.048 7.2C6.51733 6.72 7.056 6.37867 7.664 6.176Z" fill="#C8C5CA"/>
</svg>
